# MagicaVoxel @ Ephtracy

# group
o 

# material
mtllib sleeve.mtl
usemtl palette

# normals
vn -1 0 0
vn 1 0 0
vn 0 0 1
vn 0 0 -1
vn 0 -1 0
vn 0 1 0

# texcoords
vt 0.970703 0.5
vt 0.974609 0.5
vt 0.978516 0.5
vt 0.982422 0.5
vt 0.986328 0.5

# verts
v -0.3 0 0.1
v -0.3 0 -0.2
v -0.3 0.1 0.1
v -0.3 0.1 -0.2
v -0.3 0.2 0.1
v -0.3 0.2 -0.2
v -0.3 0.3 0.1
v -0.3 0.3 -0.2
v -0.3 1.1 0.1
v -0.3 1.1 -0.2
v -0.2 0 0.2
v -0.2 0 0.1
v -0.2 0 -0.2
v -0.2 0 -0.3
v -0.2 0.1 0.2
v -0.2 0.1 0.1
v -0.2 0.1 -0.2
v -0.2 0.1 -0.3
v -0.2 0.2 0.2
v -0.2 0.2 0.1
v -0.2 0.2 -0.2
v -0.2 0.2 -0.3
v -0.2 0.3 0.2
v -0.2 0.3 0.1
v -0.2 0.3 -0.2
v -0.2 0.3 -0.3
v -0.2 1.1 0.2
v -0.2 1.1 0.1
v -0.2 1.1 -0.2
v -0.2 1.1 -0.3
v -0.1 0 0.3
v -0.1 0 0.2
v -0.1 0 -0.3
v -0.1 0 -0.4
v -0.1 0.1 0.3
v -0.1 0.1 0.2
v -0.1 0.1 -0.3
v -0.1 0.1 -0.4
v -0.1 0.2 0.3
v -0.1 0.2 0.2
v -0.1 0.2 -0.3
v -0.1 0.2 -0.4
v -0.1 0.3 0.3
v -0.1 0.3 0.2
v -0.1 0.3 -0.3
v -0.1 0.3 -0.4
v -0.1 1.1 0.3
v -0.1 1.1 0.2
v -0.1 1.1 -0.3
v -0.1 1.1 -0.4
v 0.2 0 0.3
v 0.2 0 0.2
v 0.2 0 -0.3
v 0.2 0 -0.4
v 0.2 0.1 0.3
v 0.2 0.1 0.2
v 0.2 0.1 -0.3
v 0.2 0.1 -0.4
v 0.2 0.2 0.3
v 0.2 0.2 0.2
v 0.2 0.2 -0.3
v 0.2 0.2 -0.4
v 0.2 0.3 0.3
v 0.2 0.3 0.2
v 0.2 0.3 -0.3
v 0.2 0.3 -0.4
v 0.2 1.1 0.3
v 0.2 1.1 0.2
v 0.2 1.1 -0.3
v 0.2 1.1 -0.4
v 0.3 0 0.2
v 0.3 0 0.1
v 0.3 0 -0.2
v 0.3 0 -0.3
v 0.3 0.1 0.2
v 0.3 0.1 0.1
v 0.3 0.1 -0.2
v 0.3 0.1 -0.3
v 0.3 0.2 0.2
v 0.3 0.2 0.1
v 0.3 0.2 -0.2
v 0.3 0.2 -0.3
v 0.3 0.3 0.2
v 0.3 0.3 0.1
v 0.3 0.3 -0.2
v 0.3 0.3 -0.3
v 0.3 1.1 0.2
v 0.3 1.1 0.1
v 0.3 1.1 -0.2
v 0.3 1.1 -0.3
v 0.4 0 0.1
v 0.4 0 -0.2
v 0.4 0.1 0.1
v 0.4 0.1 -0.2
v 0.4 0.2 0.1
v 0.4 0.2 -0.2
v 0.4 0.3 0.1
v 0.4 0.3 -0.2
v 0.4 1.1 0.1
v 0.4 1.1 -0.2
v -0.1 0 0.3
v -0.1 0.1 0.3
v -0.1 0.2 0.3
v -0.1 0.3 0.3
v -0.1 1.1 0.3
v 0.2 0 0.3
v 0.2 0.1 0.3
v 0.2 0.2 0.3
v 0.2 0.3 0.3
v 0.2 1.1 0.3
v -0.2 0 0.2
v -0.2 0.1 0.2
v -0.2 0.2 0.2
v -0.2 0.3 0.2
v -0.2 1.1 0.2
v -0.1 0 0.2
v -0.1 0.1 0.2
v -0.1 0.2 0.2
v -0.1 0.3 0.2
v -0.1 1.1 0.2
v 0.2 0 0.2
v 0.2 0.1 0.2
v 0.2 0.2 0.2
v 0.2 0.3 0.2
v 0.2 1.1 0.2
v 0.3 0 0.2
v 0.3 0.1 0.2
v 0.3 0.2 0.2
v 0.3 0.3 0.2
v 0.3 1.1 0.2
v -0.3 0 0.1
v -0.3 0.1 0.1
v -0.3 0.2 0.1
v -0.3 0.3 0.1
v -0.3 1.1 0.1
v -0.2 0 0.1
v -0.2 0.1 0.1
v -0.2 0.2 0.1
v -0.2 0.3 0.1
v -0.2 1.1 0.1
v 0.3 0 0.1
v 0.3 0.1 0.1
v 0.3 0.2 0.1
v 0.3 0.3 0.1
v 0.3 1.1 0.1
v 0.4 0 0.1
v 0.4 0.1 0.1
v 0.4 0.2 0.1
v 0.4 0.3 0.1
v 0.4 1.1 0.1
v -0.3 0 -0.2
v -0.3 0.1 -0.2
v -0.3 0.2 -0.2
v -0.3 0.3 -0.2
v -0.3 1.1 -0.2
v -0.2 0 -0.2
v -0.2 0.1 -0.2
v -0.2 0.2 -0.2
v -0.2 0.3 -0.2
v -0.2 1.1 -0.2
v 0.3 0 -0.2
v 0.3 0.1 -0.2
v 0.3 0.2 -0.2
v 0.3 0.3 -0.2
v 0.3 1.1 -0.2
v 0.4 0 -0.2
v 0.4 0.1 -0.2
v 0.4 0.2 -0.2
v 0.4 0.3 -0.2
v 0.4 1.1 -0.2
v -0.2 0 -0.3
v -0.2 0.1 -0.3
v -0.2 0.2 -0.3
v -0.2 0.3 -0.3
v -0.2 1.1 -0.3
v -0.1 0 -0.3
v -0.1 0.1 -0.3
v -0.1 0.2 -0.3
v -0.1 0.3 -0.3
v -0.1 1.1 -0.3
v 0.2 0 -0.3
v 0.2 0.1 -0.3
v 0.2 0.2 -0.3
v 0.2 0.3 -0.3
v 0.2 1.1 -0.3
v 0.3 0 -0.3
v 0.3 0.1 -0.3
v 0.3 0.2 -0.3
v 0.3 0.3 -0.3
v 0.3 1.1 -0.3
v -0.1 0 -0.4
v -0.1 0.1 -0.4
v -0.1 0.2 -0.4
v -0.1 0.3 -0.4
v -0.1 1.1 -0.4
v 0.2 0 -0.4
v 0.2 0.1 -0.4
v 0.2 0.2 -0.4
v 0.2 0.3 -0.4
v 0.2 1.1 -0.4
v -0.1 0 0.3
v 0.2 0 0.3
v -0.2 0 0.2
v -0.1 0 0.2
v 0.2 0 0.2
v 0.3 0 0.2
v -0.3 0 0.1
v -0.2 0 0.1
v 0 0 0.1
v 0.1 0 0.1
v 0.3 0 0.1
v 0.4 0 0.1
v -0.1 0 0
v 0 0 0
v 0.1 0 0
v 0.2 0 0
v -0.1 0 -0.1
v 0 0 -0.1
v 0.1 0 -0.1
v 0.2 0 -0.1
v -0.3 0 -0.2
v -0.2 0 -0.2
v 0 0 -0.2
v 0.1 0 -0.2
v 0.3 0 -0.2
v 0.4 0 -0.2
v -0.2 0 -0.3
v -0.1 0 -0.3
v 0.2 0 -0.3
v 0.3 0 -0.3
v -0.1 0 -0.4
v 0.2 0 -0.4
v -0.1 1.1 0.3
v 0.2 1.1 0.3
v -0.2 1.1 0.2
v -0.1 1.1 0.2
v 0 1.1 0.2
v 0.1 1.1 0.2
v 0.2 1.1 0.2
v 0.3 1.1 0.2
v -0.3 1.1 0.1
v -0.2 1.1 0.1
v -0.1 1.1 0.1
v 0 1.1 0.1
v 0.1 1.1 0.1
v 0.2 1.1 0.1
v 0.3 1.1 0.1
v 0.4 1.1 0.1
v -0.2 1.1 0
v -0.1 1.1 0
v 0.2 1.1 0
v 0.3 1.1 0
v -0.2 1.1 -0.1
v -0.1 1.1 -0.1
v 0.2 1.1 -0.1
v 0.3 1.1 -0.1
v -0.3 1.1 -0.2
v -0.2 1.1 -0.2
v -0.1 1.1 -0.2
v 0 1.1 -0.2
v 0.1 1.1 -0.2
v 0.2 1.1 -0.2
v 0.3 1.1 -0.2
v 0.4 1.1 -0.2
v -0.2 1.1 -0.3
v -0.1 1.1 -0.3
v 0 1.1 -0.3
v 0.1 1.1 -0.3
v 0.2 1.1 -0.3
v 0.3 1.1 -0.3
v -0.1 1.1 -0.4
v 0.2 1.1 -0.4

# faces
f 3/2/1 2/2/1 1/2/1
f 4/2/1 2/2/1 3/2/1
f 5/5/1 4/5/1 3/5/1
f 6/5/1 4/5/1 5/5/1
f 7/2/1 6/2/1 5/2/1
f 8/2/1 6/2/1 7/2/1
f 9/1/1 8/1/1 7/1/1
f 10/1/1 8/1/1 9/1/1
f 15/2/1 12/2/1 11/2/1
f 16/2/1 12/2/1 15/2/1
f 17/2/1 14/2/1 13/2/1
f 18/2/1 14/2/1 17/2/1
f 19/5/1 16/5/1 15/5/1
f 20/5/1 16/5/1 19/5/1
f 21/5/1 18/5/1 17/5/1
f 22/5/1 18/5/1 21/5/1
f 23/2/1 20/2/1 19/2/1
f 24/2/1 20/2/1 23/2/1
f 25/2/1 22/2/1 21/2/1
f 26/2/1 22/2/1 25/2/1
f 27/1/1 24/1/1 23/1/1
f 28/1/1 24/1/1 27/1/1
f 29/1/1 26/1/1 25/1/1
f 30/1/1 26/1/1 29/1/1
f 35/2/1 32/2/1 31/2/1
f 36/2/1 32/2/1 35/2/1
f 37/2/1 34/2/1 33/2/1
f 38/2/1 34/2/1 37/2/1
f 39/5/1 36/5/1 35/5/1
f 40/5/1 36/5/1 39/5/1
f 41/5/1 38/5/1 37/5/1
f 42/5/1 38/5/1 41/5/1
f 43/2/1 40/2/1 39/2/1
f 44/2/1 40/2/1 43/2/1
f 45/2/1 42/2/1 41/2/1
f 46/2/1 42/2/1 45/2/1
f 47/1/1 44/1/1 43/1/1
f 48/1/1 44/1/1 47/1/1
f 49/1/1 46/1/1 45/1/1
f 50/1/1 46/1/1 49/1/1
f 51/2/2 52/2/2 55/2/2
f 55/2/2 52/2/2 56/2/2
f 53/2/2 54/2/2 57/2/2
f 57/2/2 54/2/2 58/2/2
f 55/5/2 56/5/2 59/5/2
f 59/5/2 56/5/2 60/5/2
f 57/5/2 58/5/2 61/5/2
f 61/5/2 58/5/2 62/5/2
f 59/2/2 60/2/2 63/2/2
f 63/2/2 60/2/2 64/2/2
f 61/2/2 62/2/2 65/2/2
f 65/2/2 62/2/2 66/2/2
f 63/1/2 64/1/2 67/1/2
f 67/1/2 64/1/2 68/1/2
f 65/1/2 66/1/2 69/1/2
f 69/1/2 66/1/2 70/1/2
f 71/2/2 72/2/2 75/2/2
f 75/2/2 72/2/2 76/2/2
f 73/2/2 74/2/2 77/2/2
f 77/2/2 74/2/2 78/2/2
f 75/5/2 76/5/2 79/5/2
f 79/5/2 76/5/2 80/5/2
f 77/5/2 78/5/2 81/5/2
f 81/5/2 78/5/2 82/5/2
f 79/2/2 80/2/2 83/2/2
f 83/2/2 80/2/2 84/2/2
f 81/2/2 82/2/2 85/2/2
f 85/2/2 82/2/2 86/2/2
f 83/1/2 84/1/2 87/1/2
f 87/1/2 84/1/2 88/1/2
f 85/1/2 86/1/2 89/1/2
f 89/1/2 86/1/2 90/1/2
f 91/2/2 92/2/2 93/2/2
f 93/2/2 92/2/2 94/2/2
f 93/5/2 94/5/2 95/5/2
f 95/5/2 94/5/2 96/5/2
f 95/2/2 96/2/2 97/2/2
f 97/2/2 96/2/2 98/2/2
f 97/1/2 98/1/2 99/1/2
f 99/1/2 98/1/2 100/1/2
f 106/2/3 102/2/3 101/2/3
f 107/5/3 103/5/3 102/5/3
f 107/2/3 102/2/3 106/2/3
f 108/2/3 104/2/3 103/2/3
f 108/5/3 103/5/3 107/5/3
f 109/1/3 105/1/3 104/1/3
f 109/2/3 104/2/3 108/2/3
f 110/1/3 105/1/3 109/1/3
f 116/2/3 112/2/3 111/2/3
f 117/5/3 113/5/3 112/5/3
f 117/2/3 112/2/3 116/2/3
f 118/2/3 114/2/3 113/2/3
f 118/5/3 113/5/3 117/5/3
f 119/1/3 115/1/3 114/1/3
f 119/2/3 114/2/3 118/2/3
f 120/1/3 115/1/3 119/1/3
f 126/2/3 122/2/3 121/2/3
f 127/5/3 123/5/3 122/5/3
f 127/2/3 122/2/3 126/2/3
f 128/2/3 124/2/3 123/2/3
f 128/5/3 123/5/3 127/5/3
f 129/1/3 125/1/3 124/1/3
f 129/2/3 124/2/3 128/2/3
f 130/1/3 125/1/3 129/1/3
f 136/2/3 132/2/3 131/2/3
f 137/5/3 133/5/3 132/5/3
f 137/2/3 132/2/3 136/2/3
f 138/2/3 134/2/3 133/2/3
f 138/5/3 133/5/3 137/5/3
f 139/1/3 135/1/3 134/1/3
f 139/2/3 134/2/3 138/2/3
f 140/1/3 135/1/3 139/1/3
f 146/2/3 142/2/3 141/2/3
f 147/5/3 143/5/3 142/5/3
f 147/2/3 142/2/3 146/2/3
f 148/2/3 144/2/3 143/2/3
f 148/5/3 143/5/3 147/5/3
f 149/1/3 145/1/3 144/1/3
f 149/2/3 144/2/3 148/2/3
f 150/1/3 145/1/3 149/1/3
f 151/2/4 152/2/4 156/2/4
f 152/5/4 153/5/4 157/5/4
f 156/2/4 152/2/4 157/2/4
f 153/2/4 154/2/4 158/2/4
f 157/5/4 153/5/4 158/5/4
f 154/1/4 155/1/4 159/1/4
f 158/2/4 154/2/4 159/2/4
f 159/1/4 155/1/4 160/1/4
f 161/2/4 162/2/4 166/2/4
f 162/5/4 163/5/4 167/5/4
f 166/2/4 162/2/4 167/2/4
f 163/2/4 164/2/4 168/2/4
f 167/5/4 163/5/4 168/5/4
f 164/1/4 165/1/4 169/1/4
f 168/2/4 164/2/4 169/2/4
f 169/1/4 165/1/4 170/1/4
f 171/2/4 172/2/4 176/2/4
f 172/5/4 173/5/4 177/5/4
f 176/2/4 172/2/4 177/2/4
f 173/2/4 174/2/4 178/2/4
f 177/5/4 173/5/4 178/5/4
f 174/1/4 175/1/4 179/1/4
f 178/2/4 174/2/4 179/2/4
f 179/1/4 175/1/4 180/1/4
f 181/2/4 182/2/4 186/2/4
f 182/5/4 183/5/4 187/5/4
f 186/2/4 182/2/4 187/2/4
f 183/2/4 184/2/4 188/2/4
f 187/5/4 183/5/4 188/5/4
f 184/1/4 185/1/4 189/1/4
f 188/2/4 184/2/4 189/2/4
f 189/1/4 185/1/4 190/1/4
f 191/2/4 192/2/4 196/2/4
f 192/5/4 193/5/4 197/5/4
f 196/2/4 192/2/4 197/2/4
f 193/2/4 194/2/4 198/2/4
f 197/5/4 193/5/4 198/5/4
f 194/1/4 195/1/4 199/1/4
f 198/2/4 194/2/4 199/2/4
f 199/1/4 195/1/4 200/1/4
f 204/2/5 202/2/5 201/2/5
f 205/2/5 202/2/5 204/2/5
f 208/2/5 204/2/5 203/2/5
f 208/2/5 206/2/5 205/2/5
f 208/2/5 205/2/5 204/2/5
f 209/2/5 206/2/5 208/2/5
f 210/2/5 206/2/5 209/2/5
f 211/2/5 206/2/5 210/2/5
f 213/2/5 208/2/5 207/2/5
f 213/2/5 209/2/5 208/2/5
f 214/4/5 210/4/5 209/4/5
f 214/2/5 209/2/5 213/2/5
f 215/2/5 212/2/5 211/2/5
f 215/4/5 210/4/5 214/4/5
f 215/2/5 211/2/5 210/2/5
f 216/2/5 212/2/5 215/2/5
f 217/4/5 214/4/5 213/4/5
f 217/2/5 213/2/5 207/2/5
f 217/4/5 216/4/5 215/4/5
f 217/4/5 215/4/5 214/4/5
f 218/4/5 216/4/5 217/4/5
f 219/4/5 216/4/5 218/4/5
f 220/2/5 212/2/5 216/2/5
f 220/4/5 216/4/5 219/4/5
f 221/2/5 217/2/5 207/2/5
f 221/2/5 218/2/5 217/2/5
f 222/2/5 218/2/5 221/2/5
f 223/4/5 219/4/5 218/4/5
f 223/2/5 218/2/5 222/2/5
f 224/2/5 220/2/5 219/2/5
f 224/4/5 219/4/5 223/4/5
f 225/2/5 212/2/5 220/2/5
f 225/2/5 220/2/5 224/2/5
f 226/2/5 212/2/5 225/2/5
f 227/2/5 224/2/5 223/2/5
f 227/2/5 225/2/5 224/2/5
f 227/2/5 223/2/5 222/2/5
f 228/2/5 225/2/5 227/2/5
f 229/2/5 225/2/5 228/2/5
f 230/2/5 225/2/5 229/2/5
f 231/2/5 229/2/5 228/2/5
f 232/2/5 229/2/5 231/2/5
f 233/1/6 234/1/6 236/1/6
f 236/1/6 234/1/6 237/1/6
f 237/1/6 234/1/6 238/1/6
f 238/1/6 234/1/6 239/1/6
f 235/1/6 236/1/6 242/1/6
f 236/1/6 237/1/6 242/1/6
f 242/1/6 237/1/6 243/1/6
f 237/3/6 238/3/6 244/3/6
f 243/1/6 237/1/6 244/1/6
f 239/1/6 240/1/6 245/1/6
f 244/3/6 238/3/6 245/3/6
f 238/1/6 239/1/6 245/1/6
f 245/1/6 240/1/6 246/1/6
f 246/1/6 240/1/6 247/1/6
f 241/1/6 242/1/6 249/1/6
f 242/1/6 243/1/6 249/1/6
f 243/3/6 244/3/6 250/3/6
f 249/1/6 243/1/6 250/1/6
f 244/3/6 245/3/6 250/3/6
f 245/3/6 246/3/6 250/3/6
f 247/1/6 248/1/6 251/1/6
f 250/3/6 246/3/6 251/3/6
f 246/1/6 247/1/6 251/1/6
f 251/1/6 248/1/6 252/1/6
f 241/1/6 249/1/6 253/1/6
f 249/3/6 250/3/6 253/3/6
f 251/3/6 252/3/6 253/3/6
f 250/3/6 251/3/6 253/3/6
f 253/3/6 252/3/6 254/3/6
f 254/3/6 252/3/6 255/3/6
f 252/1/6 248/1/6 256/1/6
f 255/3/6 252/3/6 256/3/6
f 241/1/6 253/1/6 257/1/6
f 253/1/6 254/1/6 257/1/6
f 257/1/6 254/1/6 258/1/6
f 254/3/6 255/3/6 259/3/6
f 258/1/6 254/1/6 259/1/6
f 259/3/6 255/3/6 260/3/6
f 260/3/6 255/3/6 261/3/6
f 255/1/6 256/1/6 262/1/6
f 261/3/6 255/3/6 262/3/6
f 256/1/6 248/1/6 263/1/6
f 262/1/6 256/1/6 263/1/6
f 263/1/6 248/1/6 264/1/6
f 258/1/6 259/1/6 265/1/6
f 259/1/6 260/1/6 265/1/6
f 265/1/6 260/1/6 266/1/6
f 260/3/6 261/3/6 267/3/6
f 266/1/6 260/1/6 267/1/6
f 261/1/6 262/1/6 268/1/6
f 267/3/6 261/3/6 268/3/6
f 262/1/6 263/1/6 268/1/6
f 268/1/6 263/1/6 269/1/6
f 269/1/6 263/1/6 270/1/6
f 266/1/6 267/1/6 271/1/6
f 268/1/6 269/1/6 271/1/6
f 267/1/6 268/1/6 271/1/6
f 271/1/6 269/1/6 272/1/6
