# MagicaVoxel @ Ephtracy

# group
o 

# material
mtllib shootgun-2.mtl
usemtl palette

# normals
vn -1 0 0
vn 1 0 0
vn 0 0 1
vn 0 0 -1
vn 0 -1 0
vn 0 1 0

# texcoords
vt 0.306641 0.5
vt 0.970703 0.5
vt 0.974609 0.5
vt 0.978516 0.5

# verts
v -0.2 0.5 1.5
v -0.2 0.5 1
v -0.2 0.5 0.7
v -0.2 0.6 1.5
v -0.2 0.6 1
v -0.2 0.6 0.9
v -0.2 0.6 0.7
v -0.2 0.7 1.5
v -0.2 0.7 1.4
v -0.2 0.7 0.9
v -0.2 0.8 1.4
v -0.2 0.8 1.3
v -0.2 0.9 1.3
v -0.2 0.9 0.7
v -0.2 1.1 -0.2
v -0.2 1.1 -0.3
v -0.2 1.2 -0.1
v -0.2 1.2 -0.2
v -0.2 1.2 -0.3
v -0.2 1.2 -0.4
v -0.2 1.2 -0.9
v -0.2 1.2 -1
v -0.2 1.3 0.7
v -0.2 1.3 -0.1
v -0.2 1.3 -0.4
v -0.2 1.3 -0.9
v -0.2 1.5 0.7
v -0.2 1.5 -0.1
v -0.2 1.5 -0.4
v -0.2 1.5 -0.9
v -0.2 1.6 -0.1
v -0.2 1.6 -0.4
v -0.2 1.6 -0.9
v -0.2 1.6 -1
v -0.1 0.5 1.6
v -0.1 0.5 1.5
v -0.1 0.6 1.6
v -0.1 0.6 1.5
v -0.1 0.8 1.4
v -0.1 0.8 1.3
v -0.1 0.9 1.4
v -0.1 0.9 1.3
v -0.1 1.2 0.7
v -0.1 1.2 -0.1
v -0.1 1.2 -0.4
v -0.1 1.2 -0.9
v -0.1 1.3 0.7
v -0.1 1.3 -0.1
v -0.1 1.3 -0.4
v -0.1 1.3 -0.9
v -0.1 1.5 0.7
v -0.1 1.5 -0.1
v -0.1 1.5 -0.4
v -0.1 1.5 -0.9
v -0.1 1.6 0.7
v -0.1 1.6 -0.1
v -0.1 1.6 -0.4
v -0.1 1.6 -0.9
v 0 1.3 0.7
v 0 1.3 -1
v 0 1.5 0.7
v 0 1.5 -0.1
v 0 1.5 -0.4
v 0 1.5 -1
v 0.1 1.5 0.7
v 0.1 1.5 -0.1
v 0.1 1.5 -0.4
v 0.1 1.5 -0.9
v 0.1 1.6 0.7
v 0.1 1.6 -0.1
v 0.1 1.6 -0.4
v 0.1 1.6 -0.9
v 0.2 0.5 0.8
v 0.2 0.5 0.7
v 0.2 0.6 0.8
v 0.2 0.6 0.7
v 0.2 1.3 0.7
v 0.2 1.3 -0.1
v 0.2 1.3 -0.4
v 0.2 1.3 -1
v 0.2 1.5 0.7
v 0.2 1.5 -0.1
v 0.2 1.5 -0.4
v 0.2 1.5 -1
v -0.1 0.5 0.8
v -0.1 0.5 0.7
v -0.1 0.6 0.8
v -0.1 0.6 0.7
v -0.1 1.3 0.7
v -0.1 1.3 -0.1
v -0.1 1.3 -0.4
v -0.1 1.3 -1
v -0.1 1.5 0.7
v -0.1 1.5 -0.1
v -0.1 1.5 -0.4
v -0.1 1.5 -1
v 0 1.5 0.7
v 0 1.5 -0.1
v 0 1.5 -0.4
v 0 1.5 -0.9
v 0 1.6 0.7
v 0 1.6 -0.1
v 0 1.6 -0.4
v 0 1.6 -0.9
v 0.1 1.3 0.7
v 0.1 1.3 -1
v 0.1 1.5 0.7
v 0.1 1.5 -0.1
v 0.1 1.5 -0.4
v 0.1 1.5 -1
v 0.2 0.5 1.6
v 0.2 0.5 1.5
v 0.2 0.6 1.6
v 0.2 0.6 1.5
v 0.2 0.8 1.4
v 0.2 0.8 1.3
v 0.2 0.9 1.4
v 0.2 0.9 1.3
v 0.2 1.2 0.7
v 0.2 1.2 -0.1
v 0.2 1.2 -0.4
v 0.2 1.2 -0.9
v 0.2 1.3 0.7
v 0.2 1.3 -0.1
v 0.2 1.3 -0.4
v 0.2 1.3 -0.9
v 0.2 1.5 0.7
v 0.2 1.5 -0.1
v 0.2 1.5 -0.4
v 0.2 1.5 -0.9
v 0.2 1.6 0.7
v 0.2 1.6 -0.1
v 0.2 1.6 -0.4
v 0.2 1.6 -0.9
v 0.3 0.5 1.5
v 0.3 0.5 1.1
v 0.3 0.5 0.7
v 0.3 0.6 1.5
v 0.3 0.6 1.1
v 0.3 0.6 1
v 0.3 0.6 0.7
v 0.3 0.7 1.5
v 0.3 0.7 1.4
v 0.3 0.7 1
v 0.3 0.8 1.4
v 0.3 0.8 1.3
v 0.3 0.9 1.3
v 0.3 0.9 0.7
v 0.3 1.1 -0.2
v 0.3 1.1 -0.3
v 0.3 1.2 -0.1
v 0.3 1.2 -0.2
v 0.3 1.2 -0.3
v 0.3 1.2 -0.4
v 0.3 1.2 -0.9
v 0.3 1.2 -1
v 0.3 1.3 0.7
v 0.3 1.3 -0.1
v 0.3 1.3 -0.4
v 0.3 1.3 -0.9
v 0.3 1.5 0.7
v 0.3 1.5 -0.1
v 0.3 1.5 -0.4
v 0.3 1.5 -0.9
v 0.3 1.6 -0.1
v 0.3 1.6 -0.4
v 0.3 1.6 -0.9
v 0.3 1.6 -1
v -0.1 0.5 1.6
v -0.1 0.6 1.6
v 0.2 0.5 1.6
v 0.2 0.6 1.6
v -0.2 0.5 1.5
v -0.2 0.6 1.5
v -0.2 0.7 1.5
v -0.1 0.5 1.5
v -0.1 0.6 1.5
v 0.2 0.5 1.5
v 0.2 0.6 1.5
v 0.3 0.5 1.5
v 0.3 0.6 1.5
v 0.3 0.7 1.5
v -0.2 0.7 1.4
v -0.2 0.8 1.4
v -0.1 0.7 1.4
v -0.1 0.8 1.4
v -0.1 0.9 1.4
v 0 0.7 1.4
v 0 0.9 1.4
v 0.1 0.7 1.4
v 0.1 0.9 1.4
v 0.2 0.7 1.4
v 0.2 0.8 1.4
v 0.2 0.9 1.4
v 0.3 0.7 1.4
v 0.3 0.8 1.4
v -0.2 0.8 1.3
v -0.2 0.9 1.3
v -0.1 0.8 1.3
v -0.1 0.9 1.3
v 0.2 0.8 1.3
v 0.2 0.9 1.3
v 0.3 0.8 1.3
v 0.3 0.9 1.3
v -0.2 1.3 0.7
v -0.2 1.5 0.7
v -0.1 1.2 0.7
v -0.1 1.3 0.7
v -0.1 1.5 0.7
v -0.1 1.6 0.7
v 0 1.3 0.7
v 0 1.5 0.7
v 0 1.6 0.7
v 0.1 1.3 0.7
v 0.1 1.5 0.7
v 0.1 1.6 0.7
v 0.2 1.2 0.7
v 0.2 1.3 0.7
v 0.2 1.5 0.7
v 0.2 1.6 0.7
v 0.3 1.3 0.7
v 0.3 1.5 0.7
v -0.2 1.2 -0.1
v -0.2 1.3 -0.1
v -0.2 1.5 -0.1
v -0.2 1.6 -0.1
v -0.1 1.2 -0.1
v -0.1 1.3 -0.1
v -0.1 1.5 -0.1
v -0.1 1.6 -0.1
v 0 1.5 -0.1
v 0 1.6 -0.1
v 0.1 1.5 -0.1
v 0.1 1.6 -0.1
v 0.2 1.2 -0.1
v 0.2 1.3 -0.1
v 0.2 1.5 -0.1
v 0.2 1.6 -0.1
v 0.3 1.2 -0.1
v 0.3 1.3 -0.1
v 0.3 1.5 -0.1
v 0.3 1.6 -0.1
v -0.2 1.1 -0.2
v -0.2 1.2 -0.2
v -0.1 1.2 -0.2
v 0.2 1.2 -0.2
v 0.3 1.1 -0.2
v 0.3 1.2 -0.2
v -0.2 1.2 -0.9
v -0.2 1.3 -0.9
v -0.2 1.5 -0.9
v -0.2 1.6 -0.9
v -0.1 1.2 -0.9
v -0.1 1.3 -0.9
v -0.1 1.5 -0.9
v -0.1 1.6 -0.9
v 0 1.5 -0.9
v 0 1.6 -0.9
v 0.1 1.5 -0.9
v 0.1 1.6 -0.9
v 0.2 1.2 -0.9
v 0.2 1.3 -0.9
v 0.2 1.5 -0.9
v 0.2 1.6 -0.9
v 0.3 1.2 -0.9
v 0.3 1.3 -0.9
v 0.3 1.5 -0.9
v 0.3 1.6 -0.9
v -0.1 0.5 0.8
v -0.1 0.6 0.8
v 0.2 0.5 0.8
v 0.2 0.6 0.8
v -0.2 0.5 0.7
v -0.2 0.6 0.7
v -0.2 0.9 0.7
v -0.1 0.5 0.7
v -0.1 0.6 0.7
v 0 0.8 0.7
v 0 0.9 0.7
v 0.1 0.8 0.7
v 0.1 0.9 0.7
v 0.2 0.5 0.7
v 0.2 0.6 0.7
v 0.3 0.5 0.7
v 0.3 0.6 0.7
v 0.3 0.9 0.7
v -0.2 1.1 -0.3
v -0.2 1.2 -0.3
v -0.1 1.2 -0.3
v 0.2 1.2 -0.3
v 0.3 1.1 -0.3
v 0.3 1.2 -0.3
v -0.2 1.2 -0.4
v -0.2 1.3 -0.4
v -0.2 1.5 -0.4
v -0.2 1.6 -0.4
v -0.1 1.2 -0.4
v -0.1 1.3 -0.4
v -0.1 1.5 -0.4
v -0.1 1.6 -0.4
v 0 1.5 -0.4
v 0 1.6 -0.4
v 0.1 1.5 -0.4
v 0.1 1.6 -0.4
v 0.2 1.2 -0.4
v 0.2 1.3 -0.4
v 0.2 1.5 -0.4
v 0.2 1.6 -0.4
v 0.3 1.2 -0.4
v 0.3 1.3 -0.4
v 0.3 1.5 -0.4
v 0.3 1.6 -0.4
v -0.2 1.2 -1
v -0.2 1.6 -1
v -0.1 1.3 -1
v -0.1 1.5 -1
v 0 1.3 -1
v 0 1.5 -1
v 0.1 1.3 -1
v 0.1 1.5 -1
v 0.2 1.3 -1
v 0.2 1.5 -1
v 0.3 1.2 -1
v 0.3 1.6 -1
v -0.1 0.5 1.6
v 0.2 0.5 1.6
v -0.2 0.5 1.5
v -0.1 0.5 1.5
v 0.2 0.5 1.5
v 0.3 0.5 1.5
v 0.2 0.5 1.1
v 0.3 0.5 1.1
v -0.2 0.5 1
v -0.1 0.5 1
v -0.1 0.5 0.8
v 0.2 0.5 0.8
v -0.2 0.5 0.7
v -0.1 0.5 0.7
v 0.2 0.5 0.7
v 0.3 0.5 0.7
v -0.1 0.6 0.8
v 0.2 0.6 0.8
v -0.1 0.6 0.7
v 0.2 0.6 0.7
v -0.2 1.1 -0.2
v 0.3 1.1 -0.2
v -0.2 1.1 -0.3
v 0.3 1.1 -0.3
v -0.1 1.2 0.7
v 0.2 1.2 0.7
v -0.2 1.2 -0.1
v -0.1 1.2 -0.1
v 0.2 1.2 -0.1
v 0.3 1.2 -0.1
v -0.2 1.2 -0.2
v -0.1 1.2 -0.2
v 0.2 1.2 -0.2
v 0.3 1.2 -0.2
v -0.2 1.2 -0.3
v -0.1 1.2 -0.3
v 0.2 1.2 -0.3
v 0.3 1.2 -0.3
v -0.2 1.2 -0.4
v -0.1 1.2 -0.4
v 0.2 1.2 -0.4
v 0.3 1.2 -0.4
v -0.2 1.2 -0.9
v -0.1 1.2 -0.9
v 0.2 1.2 -0.9
v 0.3 1.2 -0.9
v -0.2 1.2 -1
v 0.3 1.2 -1
v -0.2 1.3 0.7
v -0.1 1.3 0.7
v 0.2 1.3 0.7
v 0.3 1.3 0.7
v -0.2 1.3 -0.1
v -0.1 1.3 -0.1
v 0.2 1.3 -0.1
v 0.3 1.3 -0.1
v -0.2 1.3 -0.4
v -0.1 1.3 -0.4
v 0.2 1.3 -0.4
v 0.3 1.3 -0.4
v -0.2 1.3 -0.9
v -0.1 1.3 -0.9
v 0.2 1.3 -0.9
v 0.3 1.3 -0.9
v -0.1 1.5 0.7
v 0 1.5 0.7
v 0.1 1.5 0.7
v 0.2 1.5 0.7
v -0.1 1.5 -0.1
v 0 1.5 -0.1
v 0.1 1.5 -0.1
v 0.2 1.5 -0.1
v -0.1 1.5 -0.4
v 0 1.5 -0.4
v 0.1 1.5 -0.4
v 0.2 1.5 -0.4
v -0.1 1.5 -1
v 0 1.5 -1
v 0.1 1.5 -1
v 0.2 1.5 -1
v -0.1 0.6 1.6
v 0.2 0.6 1.6
v -0.1 0.6 1.5
v 0.2 0.6 1.5
v -0.2 0.7 1.5
v 0.3 0.7 1.5
v -0.2 0.7 1.4
v -0.1 0.7 1.4
v 0 0.7 1.4
v 0.1 0.7 1.4
v 0.2 0.7 1.4
v 0.3 0.7 1.4
v -0.2 0.8 1.4
v -0.1 0.8 1.4
v 0.2 0.8 1.4
v 0.3 0.8 1.4
v -0.2 0.8 1.3
v -0.1 0.8 1.3
v 0.2 0.8 1.3
v 0.3 0.8 1.3
v -0.1 0.9 1.4
v 0 0.9 1.4
v 0.1 0.9 1.4
v 0.2 0.9 1.4
v -0.2 0.9 1.3
v -0.1 0.9 1.3
v 0.2 0.9 1.3
v 0.3 0.9 1.3
v 0 0.9 1.1
v 0.1 0.9 1.1
v -0.1 0.9 1
v 0 0.9 1
v 0.1 0.9 1
v 0.2 0.9 1
v -0.2 0.9 0.7
v 0 0.9 0.7
v 0.1 0.9 0.7
v 0.3 0.9 0.7
v -0.1 1.3 0.7
v 0 1.3 0.7
v 0.1 1.3 0.7
v 0.2 1.3 0.7
v -0.1 1.3 -0.1
v 0.2 1.3 -0.1
v -0.1 1.3 -0.4
v 0.2 1.3 -0.4
v -0.1 1.3 -1
v 0 1.3 -1
v 0.1 1.3 -1
v 0.2 1.3 -1
v -0.2 1.5 0.7
v -0.1 1.5 0.7
v 0 1.5 0.7
v 0.1 1.5 0.7
v 0.2 1.5 0.7
v 0.3 1.5 0.7
v -0.2 1.5 -0.1
v -0.1 1.5 -0.1
v 0 1.5 -0.1
v 0.1 1.5 -0.1
v 0.2 1.5 -0.1
v 0.3 1.5 -0.1
v -0.2 1.5 -0.4
v -0.1 1.5 -0.4
v 0 1.5 -0.4
v 0.1 1.5 -0.4
v 0.2 1.5 -0.4
v 0.3 1.5 -0.4
v -0.2 1.5 -0.9
v -0.1 1.5 -0.9
v 0 1.5 -0.9
v 0.1 1.5 -0.9
v 0.2 1.5 -0.9
v 0.3 1.5 -0.9
v -0.1 1.6 0.7
v 0 1.6 0.7
v 0.1 1.6 0.7
v 0.2 1.6 0.7
v -0.2 1.6 -0.1
v -0.1 1.6 -0.1
v 0 1.6 -0.1
v 0.1 1.6 -0.1
v 0.2 1.6 -0.1
v 0.3 1.6 -0.1
v -0.2 1.6 -0.4
v -0.1 1.6 -0.4
v 0 1.6 -0.4
v 0.1 1.6 -0.4
v 0.2 1.6 -0.4
v 0.3 1.6 -0.4
v -0.2 1.6 -0.9
v -0.1 1.6 -0.9
v 0 1.6 -0.9
v 0.1 1.6 -0.9
v 0.2 1.6 -0.9
v 0.3 1.6 -0.9
v -0.2 1.6 -1
v 0.3 1.6 -1

# faces
f 4/4/1 2/4/1 1/4/1
f 5/2/1 3/2/1 2/2/1
f 5/4/1 2/4/1 4/4/1
f 6/2/1 3/2/1 5/2/1
f 7/2/1 3/2/1 6/2/1
f 8/2/1 5/2/1 4/2/1
f 8/2/1 6/2/1 5/2/1
f 9/2/1 6/2/1 8/2/1
f 10/4/1 7/4/1 6/4/1
f 10/2/1 6/2/1 9/2/1
f 11/4/1 10/4/1 9/4/1
f 12/4/1 10/4/1 11/4/1
f 13/4/1 10/4/1 12/4/1
f 14/4/1 7/4/1 10/4/1
f 14/4/1 10/4/1 13/4/1
f 18/2/1 16/2/1 15/2/1
f 19/2/1 16/2/1 18/2/1
f 24/2/1 18/2/1 17/2/1
f 24/2/1 19/2/1 18/2/1
f 24/2/1 20/2/1 19/2/1
f 25/2/1 20/2/1 24/2/1
f 26/3/1 22/3/1 21/3/1
f 27/3/1 24/3/1 23/3/1
f 28/2/1 25/2/1 24/2/1
f 28/3/1 24/3/1 27/3/1
f 29/3/1 26/3/1 25/3/1
f 29/2/1 25/2/1 28/2/1
f 30/3/1 22/3/1 26/3/1
f 30/3/1 26/3/1 29/3/1
f 31/2/1 29/2/1 28/2/1
f 32/2/1 29/2/1 31/2/1
f 33/3/1 22/3/1 30/3/1
f 34/3/1 22/3/1 33/3/1
f 37/4/1 36/4/1 35/4/1
f 38/4/1 36/4/1 37/4/1
f 41/2/1 40/2/1 39/2/1
f 42/2/1 40/2/1 41/2/1
f 47/3/1 44/3/1 43/3/1
f 48/3/1 44/3/1 47/3/1
f 49/3/1 46/3/1 45/3/1
f 50/3/1 46/3/1 49/3/1
f 55/3/1 52/3/1 51/3/1
f 56/3/1 52/3/1 55/3/1
f 57/3/1 54/3/1 53/3/1
f 58/3/1 54/3/1 57/3/1
f 61/3/1 60/3/1 59/3/1
f 62/3/1 60/3/1 61/3/1
f 63/3/1 60/3/1 62/3/1
f 64/3/1 60/3/1 63/3/1
f 69/3/1 66/3/1 65/3/1
f 70/3/1 66/3/1 69/3/1
f 71/3/1 68/3/1 67/3/1
f 72/3/1 68/3/1 71/3/1
f 75/2/1 74/2/1 73/2/1
f 76/2/1 74/2/1 75/2/1
f 81/3/1 78/3/1 77/3/1
f 82/2/1 79/2/1 78/2/1
f 82/3/1 78/3/1 81/3/1
f 83/3/1 80/3/1 79/3/1
f 83/2/1 79/2/1 82/2/1
f 84/3/1 80/3/1 83/3/1
f 85/2/2 86/2/2 87/2/2
f 87/2/2 86/2/2 88/2/2
f 89/3/2 90/3/2 93/3/2
f 90/2/2 91/2/2 94/2/2
f 93/3/2 90/3/2 94/3/2
f 91/3/2 92/3/2 95/3/2
f 94/2/2 91/2/2 95/2/2
f 95/3/2 92/3/2 96/3/2
f 97/3/2 98/3/2 101/3/2
f 101/3/2 98/3/2 102/3/2
f 99/3/2 100/3/2 103/3/2
f 103/3/2 100/3/2 104/3/2
f 105/3/2 106/3/2 107/3/2
f 107/3/2 106/3/2 108/3/2
f 108/3/2 106/3/2 109/3/2
f 109/3/2 106/3/2 110/3/2
f 111/4/2 112/4/2 113/4/2
f 113/4/2 112/4/2 114/4/2
f 115/2/2 116/2/2 117/2/2
f 117/2/2 116/2/2 118/2/2
f 119/3/2 120/3/2 123/3/2
f 123/3/2 120/3/2 124/3/2
f 121/3/2 122/3/2 125/3/2
f 125/3/2 122/3/2 126/3/2
f 127/3/2 128/3/2 131/3/2
f 131/3/2 128/3/2 132/3/2
f 129/3/2 130/3/2 133/3/2
f 133/3/2 130/3/2 134/3/2
f 135/4/2 136/4/2 138/4/2
f 136/2/2 137/2/2 139/2/2
f 138/4/2 136/4/2 139/4/2
f 139/2/2 137/2/2 140/2/2
f 140/2/2 137/2/2 141/2/2
f 138/2/2 139/2/2 142/2/2
f 139/2/2 140/2/2 142/2/2
f 142/2/2 140/2/2 143/2/2
f 140/4/2 141/4/2 144/4/2
f 143/2/2 140/2/2 144/2/2
f 143/4/2 144/4/2 145/4/2
f 145/4/2 144/4/2 146/4/2
f 146/4/2 144/4/2 147/4/2
f 144/4/2 141/4/2 148/4/2
f 147/4/2 144/4/2 148/4/2
f 149/2/2 150/2/2 152/2/2
f 152/2/2 150/2/2 153/2/2
f 151/2/2 152/2/2 158/2/2
f 152/2/2 153/2/2 158/2/2
f 153/2/2 154/2/2 158/2/2
f 158/2/2 154/2/2 159/2/2
f 155/3/2 156/3/2 160/3/2
f 157/3/2 158/3/2 161/3/2
f 158/2/2 159/2/2 162/2/2
f 161/3/2 158/3/2 162/3/2
f 159/3/2 160/3/2 163/3/2
f 162/2/2 159/2/2 163/2/2
f 160/3/2 156/3/2 164/3/2
f 163/3/2 160/3/2 164/3/2
f 162/2/2 163/2/2 165/2/2
f 165/2/2 163/2/2 166/2/2
f 164/3/2 156/3/2 167/3/2
f 167/3/2 156/3/2 168/3/2
f 171/4/3 170/4/3 169/4/3
f 172/4/3 170/4/3 171/4/3
f 176/4/3 174/4/3 173/4/3
f 177/2/3 175/2/3 174/2/3
f 177/4/3 174/4/3 176/4/3
f 179/2/3 175/2/3 177/2/3
f 180/4/3 179/4/3 178/4/3
f 181/2/3 175/2/3 179/2/3
f 181/4/3 179/4/3 180/4/3
f 182/2/3 175/2/3 181/2/3
f 185/4/3 184/4/3 183/4/3
f 186/4/3 184/4/3 185/4/3
f 188/2/3 186/2/3 185/2/3
f 188/2/3 187/2/3 186/2/3
f 189/2/3 187/2/3 188/2/3
f 190/4/3 189/4/3 188/4/3
f 191/4/3 189/4/3 190/4/3
f 192/2/3 191/2/3 190/2/3
f 193/2/3 191/2/3 192/2/3
f 194/2/3 191/2/3 193/2/3
f 195/4/3 193/4/3 192/4/3
f 196/4/3 193/4/3 195/4/3
f 199/4/3 198/4/3 197/4/3
f 200/4/3 198/4/3 199/4/3
f 203/4/3 202/4/3 201/4/3
f 204/4/3 202/4/3 203/4/3
f 208/3/3 206/3/3 205/3/3
f 209/3/3 206/3/3 208/3/3
f 211/3/3 208/3/3 207/3/3
f 212/3/3 210/3/3 209/3/3
f 213/3/3 210/3/3 212/3/3
f 214/3/3 211/3/3 207/3/3
f 214/3/3 212/3/3 211/3/3
f 215/3/3 212/3/3 214/3/3
f 217/3/3 214/3/3 207/3/3
f 218/3/3 214/3/3 217/3/3
f 219/3/3 216/3/3 215/3/3
f 220/3/3 216/3/3 219/3/3
f 221/3/3 219/3/3 218/3/3
f 222/3/3 219/3/3 221/3/3
f 227/2/3 224/2/3 223/2/3
f 228/2/3 224/2/3 227/2/3
f 229/2/3 226/2/3 225/2/3
f 230/2/3 226/2/3 229/2/3
f 233/2/3 232/2/3 231/2/3
f 234/2/3 232/2/3 233/2/3
f 239/2/3 236/2/3 235/2/3
f 240/2/3 236/2/3 239/2/3
f 241/2/3 238/2/3 237/2/3
f 242/2/3 238/2/3 241/2/3
f 245/2/3 244/2/3 243/2/3
f 246/2/3 245/2/3 243/2/3
f 247/2/3 246/2/3 243/2/3
f 248/2/3 246/2/3 247/2/3
f 253/3/3 250/3/3 249/3/3
f 254/3/3 250/3/3 253/3/3
f 255/3/3 252/3/3 251/3/3
f 256/3/3 252/3/3 255/3/3
f 259/3/3 258/3/3 257/3/3
f 260/3/3 258/3/3 259/3/3
f 265/3/3 262/3/3 261/3/3
f 266/3/3 262/3/3 265/3/3
f 267/3/3 264/3/3 263/3/3
f 268/3/3 264/3/3 267/3/3
f 269/4/4 270/4/4 271/4/4
f 271/4/4 270/4/4 272/4/4
f 273/2/4 274/2/4 276/2/4
f 274/4/4 275/4/4 277/4/4
f 276/2/4 274/2/4 277/2/4
f 277/4/4 275/4/4 278/4/4
f 278/4/4 275/4/4 279/4/4
f 277/4/4 278/4/4 280/4/4
f 278/2/4 279/2/4 280/2/4
f 280/2/4 279/2/4 281/2/4
f 277/4/4 280/4/4 283/4/4
f 280/4/4 281/4/4 283/4/4
f 282/2/4 283/2/4 284/2/4
f 283/4/4 281/4/4 285/4/4
f 284/2/4 283/2/4 285/2/4
f 285/4/4 281/4/4 286/4/4
f 287/2/4 288/2/4 289/2/4
f 287/2/4 289/2/4 290/2/4
f 287/2/4 290/2/4 291/2/4
f 291/2/4 290/2/4 292/2/4
f 293/2/4 294/2/4 297/2/4
f 297/2/4 294/2/4 298/2/4
f 295/2/4 296/2/4 299/2/4
f 299/2/4 296/2/4 300/2/4
f 301/2/4 302/2/4 303/2/4
f 303/2/4 302/2/4 304/2/4
f 305/2/4 306/2/4 309/2/4
f 309/2/4 306/2/4 310/2/4
f 307/2/4 308/2/4 311/2/4
f 311/2/4 308/2/4 312/2/4
f 313/3/4 314/3/4 315/3/4
f 315/3/4 314/3/4 316/3/4
f 313/3/4 315/3/4 317/3/4
f 316/3/4 314/3/4 318/3/4
f 313/3/4 317/3/4 319/3/4
f 317/3/4 318/3/4 319/3/4
f 318/3/4 314/3/4 320/3/4
f 319/3/4 318/3/4 320/3/4
f 313/3/4 319/3/4 321/3/4
f 320/3/4 314/3/4 322/3/4
f 313/3/4 321/3/4 323/3/4
f 321/3/4 322/3/4 323/3/4
f 322/3/4 314/3/4 324/3/4
f 323/3/4 322/3/4 324/3/4
f 328/4/5 326/4/5 325/4/5
f 329/4/5 326/4/5 328/4/5
f 331/4/5 328/4/5 327/4/5
f 331/4/5 330/4/5 329/4/5
f 331/4/5 329/4/5 328/4/5
f 332/4/5 330/4/5 331/4/5
f 333/4/5 331/4/5 327/4/5
f 334/4/5 331/4/5 333/4/5
f 335/2/5 334/2/5 333/2/5
f 335/4/5 331/4/5 334/4/5
f 336/2/5 332/2/5 331/2/5
f 336/4/5 331/4/5 335/4/5
f 337/2/5 335/2/5 333/2/5
f 338/2/5 335/2/5 337/2/5
f 339/2/5 332/2/5 336/2/5
f 340/2/5 332/2/5 339/2/5
f 343/4/5 342/4/5 341/4/5
f 344/4/5 342/4/5 343/4/5
f 347/2/5 346/2/5 345/2/5
f 348/2/5 346/2/5 347/2/5
f 352/3/5 350/3/5 349/3/5
f 353/3/5 350/3/5 352/3/5
f 355/2/5 352/2/5 351/2/5
f 356/3/5 353/3/5 352/3/5
f 356/2/5 352/2/5 355/2/5
f 357/2/5 354/2/5 353/2/5
f 357/3/5 353/3/5 356/3/5
f 358/2/5 354/2/5 357/2/5
f 363/2/5 360/2/5 359/2/5
f 364/3/5 361/3/5 360/3/5
f 364/2/5 360/2/5 363/2/5
f 365/2/5 362/2/5 361/2/5
f 365/3/5 361/3/5 364/3/5
f 366/2/5 362/2/5 365/2/5
f 368/3/5 365/3/5 364/3/5
f 369/3/5 365/3/5 368/3/5
f 371/3/5 368/3/5 367/3/5
f 371/3/5 370/3/5 369/3/5
f 371/3/5 369/3/5 368/3/5
f 372/3/5 370/3/5 371/3/5
f 377/3/5 374/3/5 373/3/5
f 378/3/5 374/3/5 377/3/5
f 379/3/5 376/3/5 375/3/5
f 380/3/5 376/3/5 379/3/5
f 385/3/5 382/3/5 381/3/5
f 386/3/5 382/3/5 385/3/5
f 387/3/5 384/3/5 383/3/5
f 388/3/5 384/3/5 387/3/5
f 393/3/5 390/3/5 389/3/5
f 394/3/5 390/3/5 393/3/5
f 395/3/5 392/3/5 391/3/5
f 396/3/5 392/3/5 395/3/5
f 397/2/5 394/2/5 393/2/5
f 398/2/5 394/2/5 397/2/5
f 399/2/5 396/2/5 395/2/5
f 400/2/5 396/2/5 399/2/5
f 401/3/5 398/3/5 397/3/5
f 402/3/5 398/3/5 401/3/5
f 403/3/5 400/3/5 399/3/5
f 404/3/5 400/3/5 403/3/5
f 405/4/6 406/4/6 407/4/6
f 407/4/6 406/4/6 408/4/6
f 409/2/6 410/2/6 411/2/6
f 411/2/6 410/2/6 412/2/6
f 412/2/6 410/2/6 413/2/6
f 413/2/6 410/2/6 414/2/6
f 414/2/6 410/2/6 415/2/6
f 415/2/6 410/2/6 416/2/6
f 417/4/6 418/4/6 421/4/6
f 421/4/6 418/4/6 422/4/6
f 419/4/6 420/4/6 423/4/6
f 423/4/6 420/4/6 424/4/6
f 425/2/6 426/2/6 430/2/6
f 427/2/6 428/2/6 431/2/6
f 426/4/6 427/4/6 433/4/6
f 430/2/6 426/2/6 433/2/6
f 427/2/6 431/2/6 434/2/6
f 433/4/6 427/4/6 434/4/6
f 429/4/6 430/4/6 435/4/6
f 430/2/6 433/2/6 435/2/6
f 433/2/6 434/2/6 435/2/6
f 435/2/6 434/2/6 436/2/6
f 434/2/6 431/2/6 437/2/6
f 436/2/6 434/2/6 437/2/6
f 431/4/6 432/4/6 438/4/6
f 437/2/6 431/2/6 438/2/6
f 435/4/6 436/4/6 439/4/6
f 429/4/6 435/4/6 439/4/6
f 436/2/6 437/2/6 440/2/6
f 439/4/6 436/4/6 440/4/6
f 437/4/6 438/4/6 441/4/6
f 440/2/6 437/2/6 441/2/6
f 438/4/6 432/4/6 442/4/6
f 441/4/6 438/4/6 442/4/6
f 443/3/6 444/3/6 447/3/6
f 445/3/6 446/3/6 448/3/6
f 447/3/6 444/3/6 449/3/6
f 445/3/6 448/3/6 450/3/6
f 449/3/6 444/3/6 451/3/6
f 451/3/6 444/3/6 452/3/6
f 445/3/6 450/3/6 453/3/6
f 453/3/6 450/3/6 454/3/6
f 455/3/6 456/3/6 461/3/6
f 461/3/6 456/3/6 462/3/6
f 457/3/6 458/3/6 463/3/6
f 463/3/6 458/3/6 464/3/6
f 459/3/6 460/3/6 465/3/6
f 465/3/6 460/3/6 466/3/6
f 467/3/6 468/3/6 473/3/6
f 473/3/6 468/3/6 474/3/6
f 469/3/6 470/3/6 475/3/6
f 475/3/6 470/3/6 476/3/6
f 471/3/6 472/3/6 477/3/6
f 477/3/6 472/3/6 478/3/6
f 479/3/6 480/3/6 484/3/6
f 484/3/6 480/3/6 485/3/6
f 481/3/6 482/3/6 486/3/6
f 486/3/6 482/3/6 487/3/6
f 484/2/6 485/2/6 489/2/6
f 487/2/6 488/2/6 489/2/6
f 486/2/6 487/2/6 489/2/6
f 485/2/6 486/2/6 489/2/6
f 483/2/6 484/2/6 489/2/6
f 489/2/6 488/2/6 490/2/6
f 490/2/6 488/2/6 491/2/6
f 491/2/6 488/2/6 492/2/6
f 492/2/6 488/2/6 493/2/6
f 493/2/6 488/2/6 494/2/6
f 490/3/6 491/3/6 496/3/6
f 496/3/6 491/3/6 497/3/6
f 492/3/6 493/3/6 498/3/6
f 498/3/6 493/3/6 499/3/6
f 496/3/6 497/3/6 501/3/6
f 499/3/6 500/3/6 501/3/6
f 498/3/6 499/3/6 501/3/6
f 497/3/6 498/3/6 501/3/6
f 495/3/6 496/3/6 501/3/6
f 501/3/6 500/3/6 502/3/6
