# MagicaVoxel @ Ephtracy

# group
o 

# material
mtllib MashinGun-1.mtl
usemtl palette

# normals
vn -1 0 0
vn 1 0 0
vn 0 0 1
vn 0 0 -1
vn 0 -1 0
vn 0 1 0

# texcoords
vt 0.970703 0.5
vt 0.974609 0.5

# verts
v -0.9 0.1 0
v -0.9 0.1 -1.1
v -0.9 0.2 0
v -0.9 0.2 -0.6
v -0.9 0.3 -0.8
v -0.9 0.3 -1.1
v -0.9 0.4 -0.6
v -0.9 0.4 -0.8
v -0.8 0 -0.1
v -0.8 0 -1.1
v -0.8 0.1 -0.1
v -0.8 0.1 -1.1
v -0.8 0.3 -0.8
v -0.8 0.3 -1
v -0.8 0.4 -0.6
v -0.8 0.4 -0.8
v -0.8 0.4 -1
v -0.8 0.5 -0.6
v -0.8 0.5 -0.8
v -0.4 0.2 0
v -0.4 0.2 -0.6
v -0.4 0.3 0
v -0.4 0.3 -0.6
v -0.4 0.3 -1
v -0.4 0.3 -1.1
v -0.4 0.4 0
v -0.4 0.4 -0.6
v -0.4 0.4 -1
v -0.4 0.4 -1.1
v -0.4 0.5 -0.6
v -0.4 0.5 -1
v -0.1 0.4 -0.5
v -0.1 0.4 -0.7
v -0.1 0.5 -0.5
v -0.1 0.5 -0.7
v -0.5 0.4 -0.6
v -0.5 0.4 -0.8
v -0.5 0.5 -0.6
v -0.5 0.5 -0.8
v -0.2 0.2 0
v -0.2 0.2 -0.5
v -0.2 0.3 0
v -0.2 0.3 -0.5
v -0.2 0.3 -1
v -0.2 0.3 -1.1
v -0.2 0.4 0
v -0.2 0.4 -0.5
v -0.2 0.4 -0.6
v -0.2 0.4 -1
v -0.2 0.4 -1.1
v -0.2 0.5 -0.6
v -0.2 0.5 -1
v 0.2 0 -0.1
v 0.2 0 -1.1
v 0.2 0.1 -0.1
v 0.2 0.1 -1.1
v 0.2 0.3 -0.7
v 0.2 0.3 -1
v 0.2 0.4 -0.5
v 0.2 0.4 -0.7
v 0.2 0.4 -1
v 0.2 0.5 -0.5
v 0.2 0.5 -0.7
v 0.3 0.1 0
v 0.3 0.1 -1.1
v 0.3 0.2 0
v 0.3 0.2 -0.5
v 0.3 0.3 -0.7
v 0.3 0.3 -1.1
v 0.3 0.4 -0.5
v 0.3 0.4 -0.7
v -0.9 0.1 0
v -0.9 0.2 0
v -0.7 0.1 0
v -0.7 0.2 0
v -0.6 0.1 0
v -0.6 0.2 0
v -0.4 0.2 0
v -0.4 0.3 0
v -0.4 0.4 0
v -0.2 0.2 0
v -0.2 0.3 0
v -0.2 0.4 0
v 0 0.1 0
v 0 0.2 0
v 0.1 0.1 0
v 0.1 0.2 0
v 0.3 0.1 0
v 0.3 0.2 0
v -0.8 0 -0.1
v -0.8 0.1 -0.1
v -0.7 0.1 -0.1
v -0.6 0.1 -0.1
v 0 0.1 -0.1
v 0.1 0.1 -0.1
v 0.2 0 -0.1
v 0.2 0.1 -0.1
v -0.2 0.2 -0.5
v -0.2 0.3 -0.5
v -0.2 0.4 -0.5
v -0.1 0.4 -0.5
v -0.1 0.5 -0.5
v 0 0.2 -0.5
v 0 0.4 -0.5
v 0.1 0.2 -0.5
v 0.1 0.4 -0.5
v 0.2 0.4 -0.5
v 0.2 0.5 -0.5
v 0.3 0.2 -0.5
v 0.3 0.4 -0.5
v -0.9 0.2 -0.6
v -0.9 0.4 -0.6
v -0.8 0.4 -0.6
v -0.8 0.5 -0.6
v -0.7 0.2 -0.6
v -0.7 0.4 -0.6
v -0.6 0.2 -0.6
v -0.6 0.4 -0.6
v -0.5 0.4 -0.6
v -0.5 0.5 -0.6
v -0.4 0.2 -0.6
v -0.4 0.3 -0.6
v -0.4 0.4 -0.6
v -0.4 0.5 -0.6
v -0.2 0.4 -0.6
v -0.2 0.5 -0.6
v -0.1 0.4 -0.7
v -0.1 0.5 -0.7
v 0 0.4 -0.7
v 0.1 0.4 -0.7
v 0.2 0.3 -0.7
v 0.2 0.4 -0.7
v 0.2 0.5 -0.7
v 0.3 0.3 -0.7
v 0.3 0.4 -0.7
v -0.9 0.3 -0.8
v -0.9 0.4 -0.8
v -0.8 0.3 -0.8
v -0.8 0.4 -0.8
v -0.8 0.5 -0.8
v -0.7 0.4 -0.8
v -0.6 0.4 -0.8
v -0.5 0.4 -0.8
v -0.5 0.5 -0.8
v -0.8 0.3 -1
v -0.8 0.4 -1
v -0.7 0.3 -1
v -0.7 0.4 -1
v -0.5 0.3 -1
v -0.5 0.4 -1
v -0.4 0.3 -1
v -0.4 0.4 -1
v -0.4 0.5 -1
v -0.2 0.3 -1
v -0.2 0.4 -1
v -0.2 0.5 -1
v -0.1 0.3 -1
v -0.1 0.4 -1
v 0.1 0.3 -1
v 0.1 0.4 -1
v 0.2 0.3 -1
v 0.2 0.4 -1
v -0.9 0.1 -1.1
v -0.9 0.3 -1.1
v -0.8 0 -1.1
v -0.8 0.1 -1.1
v -0.7 0 -1.1
v -0.7 0.3 -1.1
v -0.6 0 -1.1
v -0.6 0.2 -1.1
v -0.4 0 -1.1
v -0.4 0.2 -1.1
v -0.4 0.3 -1.1
v -0.4 0.4 -1.1
v -0.2 0 -1.1
v -0.2 0.2 -1.1
v -0.2 0.3 -1.1
v -0.2 0.4 -1.1
v 0 0 -1.1
v 0 0.2 -1.1
v 0.1 0 -1.1
v 0.1 0.3 -1.1
v 0.2 0 -1.1
v 0.2 0.1 -1.1
v 0.3 0.1 -1.1
v 0.3 0.3 -1.1
v -0.8 0 -0.1
v 0.2 0 -0.1
v -0.7 0 -1
v -0.6 0 -1
v -0.4 0 -1
v -0.2 0 -1
v 0 0 -1
v 0.1 0 -1
v -0.8 0 -1.1
v -0.7 0 -1.1
v -0.6 0 -1.1
v -0.4 0 -1.1
v -0.2 0 -1.1
v 0 0 -1.1
v 0.1 0 -1.1
v 0.2 0 -1.1
v -0.9 0.1 0
v -0.7 0.1 0
v -0.6 0.1 0
v 0 0.1 0
v 0.1 0.1 0
v 0.3 0.1 0
v -0.8 0.1 -0.1
v -0.7 0.1 -0.1
v -0.6 0.1 -0.1
v 0 0.1 -0.1
v 0.1 0.1 -0.1
v 0.2 0.1 -0.1
v -0.9 0.1 -1.1
v -0.8 0.1 -1.1
v 0.2 0.1 -1.1
v 0.3 0.1 -1.1
v -0.9 0.2 0
v -0.7 0.2 0
v -0.6 0.2 0
v -0.4 0.2 0
v -0.2 0.2 0
v 0 0.2 0
v 0.1 0.2 0
v 0.3 0.2 0
v -0.2 0.2 -0.5
v 0 0.2 -0.5
v 0.1 0.2 -0.5
v 0.3 0.2 -0.5
v -0.9 0.2 -0.6
v -0.7 0.2 -0.6
v -0.6 0.2 -0.6
v -0.4 0.2 -0.6
v 0.2 0.3 -0.7
v 0.3 0.3 -0.7
v -0.9 0.3 -0.8
v -0.8 0.3 -0.8
v -0.8 0.3 -1
v -0.7 0.3 -1
v -0.5 0.3 -1
v -0.4 0.3 -1
v -0.2 0.3 -1
v -0.1 0.3 -1
v 0.1 0.3 -1
v 0.2 0.3 -1
v -0.9 0.3 -1.1
v -0.7 0.3 -1.1
v -0.4 0.3 -1.1
v -0.2 0.3 -1.1
v 0.1 0.3 -1.1
v 0.3 0.3 -1.1
v -0.4 0.4 0
v -0.2 0.4 0
v -0.2 0.4 -0.5
v -0.1 0.4 -0.5
v 0.2 0.4 -0.5
v 0.3 0.4 -0.5
v -0.9 0.4 -0.6
v -0.8 0.4 -0.6
v -0.5 0.4 -0.6
v -0.4 0.4 -0.6
v -0.2 0.4 -0.6
v -0.1 0.4 -0.7
v 0 0.4 -0.7
v 0.1 0.4 -0.7
v 0.2 0.4 -0.7
v 0.3 0.4 -0.7
v -0.9 0.4 -0.8
v -0.8 0.4 -0.8
v -0.7 0.4 -0.8
v -0.6 0.4 -0.8
v -0.5 0.4 -0.8
v -0.6 0.4 -0.9
v -0.5 0.4 -0.9
v -0.1 0.4 -0.9
v 0 0.4 -0.9
v -0.8 0.4 -1
v -0.7 0.4 -1
v -0.5 0.4 -1
v -0.4 0.4 -1
v -0.2 0.4 -1
v -0.1 0.4 -1
v 0.1 0.4 -1
v 0.2 0.4 -1
v -0.4 0.4 -1.1
v -0.2 0.4 -1.1
v -0.1 0.5 -0.5
v 0.2 0.5 -0.5
v -0.8 0.5 -0.6
v -0.5 0.5 -0.6
v -0.4 0.5 -0.6
v -0.2 0.5 -0.6
v -0.1 0.5 -0.7
v 0.2 0.5 -0.7
v -0.8 0.5 -0.8
v -0.5 0.5 -0.8
v -0.4 0.5 -1
v -0.2 0.5 -1

# faces
f 3/1/1 2/1/1 1/1/1
f 4/1/1 2/1/1 3/1/1
f 5/1/1 2/1/1 4/1/1
f 6/1/1 2/1/1 5/1/1
f 7/1/1 5/1/1 4/1/1
f 8/1/1 5/1/1 7/1/1
f 11/1/1 10/1/1 9/1/1
f 12/1/1 10/1/1 11/1/1
f 16/1/1 14/1/1 13/1/1
f 17/1/1 14/1/1 16/1/1
f 18/2/1 16/2/1 15/2/1
f 19/2/1 16/2/1 18/2/1
f 22/1/1 21/1/1 20/1/1
f 23/1/1 21/1/1 22/1/1
f 26/2/1 23/2/1 22/2/1
f 27/2/1 23/2/1 26/2/1
f 28/2/1 25/2/1 24/2/1
f 29/2/1 25/2/1 28/2/1
f 30/2/1 28/2/1 27/2/1
f 31/2/1 28/2/1 30/2/1
f 34/2/1 33/2/1 32/2/1
f 35/2/1 33/2/1 34/2/1
f 36/2/2 37/2/2 38/2/2
f 38/2/2 37/2/2 39/2/2
f 40/1/2 41/1/2 42/1/2
f 42/1/2 41/1/2 43/1/2
f 42/2/2 43/2/2 46/2/2
f 46/2/2 43/2/2 47/2/2
f 44/2/2 45/2/2 49/2/2
f 49/2/2 45/2/2 50/2/2
f 48/2/2 49/2/2 51/2/2
f 51/2/2 49/2/2 52/2/2
f 53/1/2 54/1/2 55/1/2
f 55/1/2 54/1/2 56/1/2
f 57/1/2 58/1/2 60/1/2
f 60/1/2 58/1/2 61/1/2
f 59/2/2 60/2/2 62/2/2
f 62/2/2 60/2/2 63/2/2
f 64/1/2 65/1/2 66/1/2
f 66/1/2 65/1/2 67/1/2
f 67/1/2 65/1/2 68/1/2
f 68/1/2 65/1/2 69/1/2
f 67/1/2 68/1/2 70/1/2
f 70/1/2 68/1/2 71/1/2
f 74/1/3 73/1/3 72/1/3
f 75/1/3 73/1/3 74/1/3
f 76/2/3 75/2/3 74/2/3
f 77/2/3 75/2/3 76/2/3
f 78/1/3 77/1/3 76/1/3
f 81/1/3 78/1/3 76/1/3
f 81/1/3 79/1/3 78/1/3
f 82/2/3 80/2/3 79/2/3
f 82/1/3 79/1/3 81/1/3
f 83/2/3 80/2/3 82/2/3
f 84/1/3 81/1/3 76/1/3
f 85/1/3 81/1/3 84/1/3
f 86/2/3 85/2/3 84/2/3
f 87/2/3 85/2/3 86/2/3
f 88/1/3 87/1/3 86/1/3
f 89/1/3 87/1/3 88/1/3
f 92/1/3 91/1/3 90/1/3
f 93/1/3 92/1/3 90/1/3
f 94/1/3 93/1/3 90/1/3
f 95/1/3 94/1/3 90/1/3
f 96/1/3 95/1/3 90/1/3
f 97/1/3 95/1/3 96/1/3
f 101/1/3 99/1/3 98/1/3
f 101/1/3 100/1/3 99/1/3
f 103/1/3 101/1/3 98/1/3
f 104/2/3 102/2/3 101/2/3
f 104/1/3 101/1/3 103/1/3
f 105/2/3 104/2/3 103/2/3
f 106/2/3 102/2/3 104/2/3
f 106/2/3 104/2/3 105/2/3
f 107/1/3 106/1/3 105/1/3
f 107/2/3 102/2/3 106/2/3
f 108/2/3 102/2/3 107/2/3
f 109/1/3 107/1/3 105/1/3
f 110/1/3 107/1/3 109/1/3
f 113/1/3 112/1/3 111/1/3
f 115/1/3 113/1/3 111/1/3
f 116/2/3 114/2/3 113/2/3
f 116/1/3 113/1/3 115/1/3
f 117/2/3 116/2/3 115/2/3
f 118/2/3 114/2/3 116/2/3
f 118/2/3 116/2/3 117/2/3
f 119/1/3 118/1/3 117/1/3
f 119/2/3 114/2/3 118/2/3
f 120/2/3 114/2/3 119/2/3
f 121/1/3 119/1/3 117/1/3
f 122/1/3 119/1/3 121/1/3
f 123/1/3 119/1/3 122/1/3
f 125/2/3 124/2/3 123/2/3
f 126/2/3 124/2/3 125/2/3
f 127/2/4 128/2/4 129/2/4
f 129/2/4 128/2/4 130/2/4
f 130/2/4 128/2/4 132/2/4
f 132/2/4 128/2/4 133/2/4
f 131/1/4 132/1/4 134/1/4
f 134/1/4 132/1/4 135/1/4
f 136/1/4 137/1/4 138/1/4
f 138/1/4 137/1/4 139/1/4
f 139/2/4 140/2/4 141/2/4
f 141/2/4 140/2/4 142/2/4
f 142/2/4 140/2/4 143/2/4
f 143/2/4 140/2/4 144/2/4
f 145/1/4 146/1/4 147/1/4
f 147/1/4 146/1/4 148/1/4
f 147/2/4 148/2/4 149/2/4
f 149/2/4 148/2/4 150/2/4
f 149/1/4 150/1/4 151/1/4
f 151/1/4 150/1/4 152/1/4
f 152/2/4 153/2/4 155/2/4
f 155/2/4 153/2/4 156/2/4
f 154/1/4 155/1/4 157/1/4
f 157/1/4 155/1/4 158/1/4
f 157/2/4 158/2/4 159/2/4
f 159/2/4 158/2/4 160/2/4
f 159/1/4 160/1/4 161/1/4
f 161/1/4 160/1/4 162/1/4
f 163/1/4 164/1/4 166/1/4
f 165/1/4 166/1/4 167/1/4
f 166/1/4 164/1/4 168/1/4
f 167/1/4 166/1/4 168/1/4
f 167/2/4 168/2/4 169/2/4
f 169/2/4 168/2/4 170/2/4
f 169/1/4 170/1/4 171/1/4
f 170/2/4 168/2/4 172/2/4
f 171/1/4 170/1/4 172/1/4
f 172/2/4 168/2/4 173/2/4
f 172/2/4 173/2/4 175/2/4
f 173/2/4 174/2/4 175/2/4
f 171/2/4 172/2/4 175/2/4
f 175/2/4 174/2/4 176/2/4
f 176/2/4 174/2/4 177/2/4
f 177/2/4 174/2/4 178/2/4
f 175/1/4 176/1/4 179/1/4
f 176/2/4 177/2/4 180/2/4
f 179/1/4 176/1/4 180/1/4
f 179/2/4 180/2/4 181/2/4
f 180/2/4 177/2/4 182/2/4
f 181/2/4 180/2/4 182/2/4
f 181/1/4 182/1/4 183/1/4
f 183/1/4 182/1/4 184/1/4
f 184/1/4 182/1/4 185/1/4
f 185/1/4 182/1/4 186/1/4
f 189/1/5 188/1/5 187/1/5
f 190/1/5 188/1/5 189/1/5
f 191/1/5 188/1/5 190/1/5
f 192/1/5 188/1/5 191/1/5
f 193/1/5 188/1/5 192/1/5
f 194/1/5 188/1/5 193/1/5
f 195/1/5 189/1/5 187/1/5
f 196/2/5 190/2/5 189/2/5
f 196/1/5 189/1/5 195/1/5
f 197/1/5 191/1/5 190/1/5
f 197/2/5 190/2/5 196/2/5
f 198/2/5 192/2/5 191/2/5
f 198/1/5 191/1/5 197/1/5
f 199/1/5 193/1/5 192/1/5
f 199/2/5 192/2/5 198/2/5
f 200/2/5 194/2/5 193/2/5
f 200/1/5 193/1/5 199/1/5
f 201/1/5 188/1/5 194/1/5
f 201/2/5 194/2/5 200/2/5
f 202/1/5 188/1/5 201/1/5
f 209/1/5 204/1/5 203/1/5
f 210/2/5 205/2/5 204/2/5
f 210/1/5 204/1/5 209/1/5
f 211/1/5 206/1/5 205/1/5
f 211/2/5 205/2/5 210/2/5
f 212/2/5 207/2/5 206/2/5
f 212/1/5 206/1/5 211/1/5
f 213/1/5 208/1/5 207/1/5
f 213/2/5 207/2/5 212/2/5
f 214/1/5 208/1/5 213/1/5
f 215/1/5 209/1/5 203/1/5
f 216/1/5 209/1/5 215/1/5
f 217/1/5 208/1/5 214/1/5
f 218/1/5 208/1/5 217/1/5
f 223/1/6 224/1/6 227/1/6
f 224/2/6 225/2/6 228/2/6
f 227/1/6 224/1/6 228/1/6
f 225/1/6 226/1/6 229/1/6
f 228/2/6 225/2/6 229/2/6
f 229/1/6 226/1/6 230/1/6
f 219/1/6 220/1/6 231/1/6
f 220/2/6 221/2/6 232/2/6
f 231/1/6 220/1/6 232/1/6
f 221/1/6 222/1/6 233/1/6
f 232/2/6 221/2/6 233/2/6
f 233/1/6 222/1/6 234/1/6
f 237/1/6 238/1/6 239/1/6
f 235/1/6 236/1/6 246/1/6
f 237/1/6 239/1/6 247/1/6
f 239/1/6 240/1/6 247/1/6
f 240/2/6 241/2/6 248/2/6
f 247/1/6 240/1/6 248/1/6
f 241/2/6 242/2/6 248/2/6
f 248/2/6 242/2/6 249/2/6
f 244/2/6 245/2/6 250/2/6
f 243/2/6 244/2/6 250/2/6
f 245/1/6 246/1/6 251/1/6
f 250/2/6 245/2/6 251/2/6
f 246/1/6 236/1/6 252/1/6
f 251/1/6 246/1/6 252/1/6
f 253/2/6 254/2/6 255/2/6
f 253/2/6 255/2/6 262/2/6
f 255/1/6 256/1/6 263/1/6
f 262/2/6 255/2/6 263/2/6
f 263/1/6 256/1/6 264/1/6
f 257/1/6 258/1/6 267/1/6
f 267/1/6 258/1/6 268/1/6
f 259/1/6 260/1/6 269/1/6
f 269/1/6 260/1/6 270/1/6
f 261/1/6 262/1/6 273/1/6
f 271/2/6 272/2/6 274/2/6
f 272/1/6 273/1/6 274/1/6
f 273/1/6 262/1/6 275/1/6
f 274/1/6 273/1/6 275/1/6
f 263/1/6 264/1/6 276/1/6
f 264/1/6 265/1/6 276/1/6
f 265/2/6 266/2/6 277/2/6
f 276/1/6 265/1/6 277/1/6
f 270/1/6 271/1/6 278/1/6
f 271/2/6 274/2/6 279/2/6
f 278/1/6 271/1/6 279/1/6
f 274/2/6 275/2/6 279/2/6
f 275/1/6 262/1/6 280/1/6
f 279/2/6 275/2/6 280/2/6
f 280/1/6 262/1/6 281/1/6
f 263/1/6 276/1/6 282/1/6
f 276/2/6 277/2/6 283/2/6
f 282/1/6 276/1/6 283/1/6
f 266/1/6 267/1/6 284/1/6
f 283/2/6 277/2/6 284/2/6
f 277/2/6 266/2/6 284/2/6
f 284/1/6 267/1/6 285/1/6
f 281/2/6 282/2/6 286/2/6
f 286/2/6 282/2/6 287/2/6
f 288/2/6 289/2/6 294/2/6
f 294/2/6 289/2/6 295/2/6
f 290/2/6 291/2/6 296/2/6
f 296/2/6 291/2/6 297/2/6
f 292/2/6 293/2/6 298/2/6
f 298/2/6 293/2/6 299/2/6
