# MagicaVoxel @ Ephtracy

# group
o 

# material
mtllib MashinGun-0.mtl
usemtl palette

# normals
vn -1 0 0
vn 1 0 0
vn 0 0 1
vn 0 0 -1
vn 0 -1 0
vn 0 1 0

# texcoords
vt 0.974609 0.5
vt 0.978516 0.5

# verts
v -0.4 0 1.4
v -0.4 0 1.3
v -0.4 2 1.5
v -0.4 2 1.4
v -0.4 2 1.3
v -0.4 2 1.2
v -0.4 2.1 1.5
v -0.4 2.1 1.2
v -0.3 0 1.5
v -0.3 0 1.4
v -0.3 0 1.3
v -0.3 0 1.2
v -0.3 2 1.5
v -0.3 2 1.4
v -0.3 2 1.3
v -0.3 2 1.2
v -0.2 0 1.5
v -0.2 0 1.4
v -0.2 0 1.3
v -0.2 0 1.2
v -0.2 2 1.5
v -0.2 2 1.4
v -0.2 2 1.3
v -0.2 2 1.2
v -0.1 0 1.4
v -0.1 0 1.3
v -0.1 2 1.5
v -0.1 2 1.4
v -0.1 2 1.3
v -0.1 2 1.2
v -0.1 2.1 1.5
v -0.1 2.1 1.2
v -0.4 2 1.5
v -0.4 2.1 1.5
v -0.3 0 1.5
v -0.3 2 1.5
v -0.2 0 1.5
v -0.2 2 1.5
v -0.1 2 1.5
v -0.1 2.1 1.5
v -0.4 0 1.4
v -0.4 2 1.4
v -0.3 0 1.4
v -0.3 2 1.4
v -0.2 0 1.4
v -0.2 2 1.4
v -0.1 0 1.4
v -0.1 2 1.4
v -0.4 0 1.3
v -0.4 2 1.3
v -0.3 0 1.3
v -0.3 2 1.3
v -0.2 0 1.3
v -0.2 2 1.3
v -0.1 0 1.3
v -0.1 2 1.3
v -0.4 2 1.2
v -0.4 2.1 1.2
v -0.3 0 1.2
v -0.3 2 1.2
v -0.2 0 1.2
v -0.2 2 1.2
v -0.1 2 1.2
v -0.1 2.1 1.2
v -0.3 0 1.5
v -0.2 0 1.5
v -0.4 0 1.4
v -0.3 0 1.4
v -0.2 0 1.4
v -0.1 0 1.4
v -0.4 0 1.3
v -0.3 0 1.3
v -0.2 0 1.3
v -0.1 0 1.3
v -0.3 0 1.2
v -0.2 0 1.2
v -0.4 2 1.5
v -0.3 2 1.5
v -0.2 2 1.5
v -0.1 2 1.5
v -0.4 2 1.4
v -0.3 2 1.4
v -0.2 2 1.4
v -0.1 2 1.4
v -0.4 2 1.3
v -0.3 2 1.3
v -0.2 2 1.3
v -0.1 2 1.3
v -0.4 2 1.2
v -0.3 2 1.2
v -0.2 2 1.2
v -0.1 2 1.2
v -0.4 2.1 1.5
v -0.1 2.1 1.5
v -0.3 2.1 1.4
v -0.2 2.1 1.4
v -0.3 2.1 1.3
v -0.2 2.1 1.3
v -0.4 2.1 1.2
v -0.1 2.1 1.2

# faces
f 4/2/1 2/2/1 1/2/1
f 5/2/1 2/2/1 4/2/1
f 7/1/1 4/1/1 3/1/1
f 7/1/1 6/1/1 5/1/1
f 7/1/1 5/1/1 4/1/1
f 8/1/1 6/1/1 7/1/1
f 13/2/1 10/2/1 9/2/1
f 14/2/1 10/2/1 13/2/1
f 15/2/1 12/2/1 11/2/1
f 16/2/1 12/2/1 15/2/1
f 17/2/2 18/2/2 21/2/2
f 21/2/2 18/2/2 22/2/2
f 19/2/2 20/2/2 23/2/2
f 23/2/2 20/2/2 24/2/2
f 25/2/2 26/2/2 28/2/2
f 28/2/2 26/2/2 29/2/2
f 27/1/2 28/1/2 31/1/2
f 29/1/2 30/1/2 31/1/2
f 28/1/2 29/1/2 31/1/2
f 31/1/2 30/1/2 32/1/2
f 36/1/3 34/1/3 33/1/3
f 37/2/3 36/2/3 35/2/3
f 38/1/3 34/1/3 36/1/3
f 38/2/3 36/2/3 37/2/3
f 39/1/3 34/1/3 38/1/3
f 40/1/3 34/1/3 39/1/3
f 43/2/3 42/2/3 41/2/3
f 44/2/3 42/2/3 43/2/3
f 47/2/3 46/2/3 45/2/3
f 48/2/3 46/2/3 47/2/3
f 49/2/4 50/2/4 51/2/4
f 51/2/4 50/2/4 52/2/4
f 53/2/4 54/2/4 55/2/4
f 55/2/4 54/2/4 56/2/4
f 57/1/4 58/1/4 60/1/4
f 59/2/4 60/2/4 61/2/4
f 60/1/4 58/1/4 62/1/4
f 61/2/4 60/2/4 62/2/4
f 62/1/4 58/1/4 63/1/4
f 63/1/4 58/1/4 64/1/4
f 68/2/5 66/2/5 65/2/5
f 69/2/5 66/2/5 68/2/5
f 71/2/5 68/2/5 67/2/5
f 71/2/5 70/2/5 69/2/5
f 71/2/5 69/2/5 68/2/5
f 72/2/5 70/2/5 71/2/5
f 73/2/5 70/2/5 72/2/5
f 74/2/5 70/2/5 73/2/5
f 75/2/5 73/2/5 72/2/5
f 76/2/5 73/2/5 75/2/5
f 81/1/5 78/1/5 77/1/5
f 82/1/5 78/1/5 81/1/5
f 83/1/5 80/1/5 79/1/5
f 84/1/5 80/1/5 83/1/5
f 89/1/5 86/1/5 85/1/5
f 90/1/5 86/1/5 89/1/5
f 91/1/5 88/1/5 87/1/5
f 92/1/5 88/1/5 91/1/5
f 93/1/6 94/1/6 95/1/6
f 95/1/6 94/1/6 96/1/6
f 93/1/6 95/1/6 97/1/6
f 95/2/6 96/2/6 97/2/6
f 96/1/6 94/1/6 98/1/6
f 97/2/6 96/2/6 98/2/6
f 93/1/6 97/1/6 99/1/6
f 97/1/6 98/1/6 99/1/6
f 98/1/6 94/1/6 100/1/6
f 99/1/6 98/1/6 100/1/6
